<svg id="Layer_1" data-name="Layer 1" xmlns="http://www.w3.org/2000/svg" viewBox="0 0 1200 77"><defs><style>.cls-1{fill:#fff;}</style></defs><path class="cls-1" d="M413.55,22.76a9.05,9.05,0,0,0-4.17-3.32,14.62,14.62,0,0,0-5.5-1.05,13.89,13.89,0,0,0-3.31.39A9,9,0,0,0,397.68,20a6.55,6.55,0,0,0-2.06,2.22,6.41,6.41,0,0,0-.78,3.23,5.07,5.07,0,0,0,2,4.29,18.88,18.88,0,0,0,4.83,2.57q2.88,1.09,6.32,2.11a25.68,25.68,0,0,1,6.31,2.8A15.77,15.77,0,0,1,419.08,42,14.13,14.13,0,0,1,421,49.88a17.22,17.22,0,0,1-1.64,7.76,15.75,15.75,0,0,1-4.4,5.49,19.08,19.08,0,0,1-6.43,3.28,26.83,26.83,0,0,1-7.72,1.09,29,29,0,0,1-9.9-1.71A19.1,19.1,0,0,1,382.76,60l7.4-7.18a12.31,12.31,0,0,0,4.72,4.25,13.27,13.27,0,0,0,9.63,1.06,10.6,10.6,0,0,0,3.11-1.41,7.21,7.21,0,0,0,2.26-2.37,6.32,6.32,0,0,0,.86-3.32,5.79,5.79,0,0,0-1.95-4.68A17.18,17.18,0,0,0,404,43.61c-1.92-.76-4-1.47-6.31-2.15a26.26,26.26,0,0,1-6.32-2.76A15.39,15.39,0,0,1,386.5,34a13.94,13.94,0,0,1-1.95-7.84,14.86,14.86,0,0,1,1.75-7.4,16,16,0,0,1,4.6-5.18,20,20,0,0,1,6.51-3.08,27.79,27.79,0,0,1,7.49-1,27,27,0,0,1,8.45,1.33,19.61,19.61,0,0,1,7.37,4.36Z"/><path class="cls-1" d="M429.84,38.74a32.08,32.08,0,0,1,2.18-12,27.19,27.19,0,0,1,6-9.24,26.68,26.68,0,0,1,9.2-5.88A32.19,32.19,0,0,1,459,9.5a32.91,32.91,0,0,1,11.85,1.91,25.91,25.91,0,0,1,9.28,5.81,26.87,26.87,0,0,1,6.08,9.2,31.74,31.74,0,0,1,2.18,12A30.78,30.78,0,0,1,486.2,50.2a27.11,27.11,0,0,1-6.08,9.12,27.87,27.87,0,0,1-9.28,6A32.71,32.71,0,0,1,459,67.5a32.19,32.19,0,0,1-11.73-2.07A26.26,26.26,0,0,1,432,50.51,30.76,30.76,0,0,1,429.84,38.74Zm10.29-.63a23.78,23.78,0,0,0,1.36,8.19,19.34,19.34,0,0,0,3.86,6.47,17.71,17.71,0,0,0,6,4.28,18.66,18.66,0,0,0,7.75,1.56,19,19,0,0,0,7.8-1.56,17.64,17.64,0,0,0,6-4.28,19.34,19.34,0,0,0,3.86-6.47,23.78,23.78,0,0,0,1.36-8.19,21.58,21.58,0,0,0-1.36-7.72,19.24,19.24,0,0,0-3.86-6.27,17.59,17.59,0,0,0-6-4.21,19.49,19.49,0,0,0-7.8-1.52,19.14,19.14,0,0,0-7.75,1.52,17.67,17.67,0,0,0-6,4.21,19.24,19.24,0,0,0-3.86,6.27A21.58,21.58,0,0,0,440.13,38.11Z"/><path class="cls-1" d="M499.29,10.91h35.63v8.88h-25.8v14.5h24.32v8.89H509.12V66.1h-9.83Z"/><path class="cls-1" d="M556.9,19.79H540V10.91h43.65v8.88H566.72V66.1H556.9Z"/><path class="cls-1" d="M585.74,10.91H596.5l10.37,39.75H607l12.39-39.75h9.67l12.16,39.75h.15l10.84-39.75h10L646.16,66.1H636.8L624,24.08h-.16l-12.78,42h-9Z"/><path class="cls-1" d="M685.84,10.91h8.49L718.11,66.1H706.88l-5.14-12.63H677.81l-5,12.63h-11Zm12.47,34.14-8.5-22.45-8.65,22.45Z"/><path class="cls-1" d="M725.82,10.91H745a38.62,38.62,0,0,1,7.68.74,19.75,19.75,0,0,1,6.59,2.53,13.41,13.41,0,0,1,4.6,4.83,15.61,15.61,0,0,1,1.71,7.72,15.37,15.37,0,0,1-3.31,10.06,14.23,14.23,0,0,1-9.47,4.91l14.65,24.4H755.6L742.82,42.71h-7.17V66.1h-9.83Zm17.47,23.38c1.4,0,2.8-.06,4.21-.19a12.64,12.64,0,0,0,3.85-.94,6.6,6.6,0,0,0,2.85-2.26,7.16,7.16,0,0,0,1.09-4.25,6.78,6.78,0,0,0-1-3.89,6.38,6.38,0,0,0-2.65-2.23,12.12,12.12,0,0,0-3.63-1,32.06,32.06,0,0,0-3.86-.23h-8.49v15Z"/><path class="cls-1" d="M776.49,10.91h36.56v8.88H786.32V33.36h25.33v8.88H786.32v15h28.14V66.1h-38Z"/></svg>