<svg id="Layer_1" data-name="Layer 1" xmlns="http://www.w3.org/2000/svg" viewBox="0 0 1200 77"><defs><style>.cls-1{fill:#fff;}</style></defs><path class="cls-1" d="M354.1,10.91h8.5L386.37,66.1H375.15L370,53.47H346.07l-5,12.63h-11Zm12.47,34.14L358.08,22.6l-8.66,22.45Z"/><path class="cls-1" d="M432,23.85a16.4,16.4,0,0,0-5.88-4.37,15.86,15.86,0,0,0-5.73-1.09,19.19,19.19,0,0,0-7.76,1.52,17.72,17.72,0,0,0-6,4.21,19.07,19.07,0,0,0-3.86,6.27,21.58,21.58,0,0,0-1.36,7.72,23.78,23.78,0,0,0,1.36,8.19,19.18,19.18,0,0,0,3.86,6.47,17.77,17.77,0,0,0,6,4.28,18.71,18.71,0,0,0,7.76,1.56A14.34,14.34,0,0,0,426.87,57a17.86,17.86,0,0,0,5.88-5.11l8.11,5.77a22,22,0,0,1-9.12,7.48,28.44,28.44,0,0,1-11.46,2.34,32.19,32.19,0,0,1-11.73-2.07,26.26,26.26,0,0,1-15.24-14.92,30.58,30.58,0,0,1-2.18-11.77,31.88,31.88,0,0,1,2.18-12,27,27,0,0,1,6-9.24,26.58,26.58,0,0,1,9.2-5.88A32.19,32.19,0,0,1,420.28,9.5a27,27,0,0,1,10.41,2,24.3,24.3,0,0,1,8.92,6.74Z"/><path class="cls-1" d="M486.93,23.85A16.42,16.42,0,0,0,481,19.48a15.77,15.77,0,0,0-5.72-1.09,19.19,19.19,0,0,0-7.76,1.52,17.87,17.87,0,0,0-6,4.21,19.21,19.21,0,0,0-3.85,6.27,21.58,21.58,0,0,0-1.37,7.72,23.78,23.78,0,0,0,1.37,8.19,19.32,19.32,0,0,0,3.85,6.47,17.91,17.91,0,0,0,6,4.28,18.71,18.71,0,0,0,7.76,1.56,14.27,14.27,0,0,0,6.5-1.59,17.79,17.79,0,0,0,5.89-5.11l8.11,5.77a22.15,22.15,0,0,1-9.12,7.48,28.44,28.44,0,0,1-11.46,2.34,32.15,32.15,0,0,1-11.73-2.07,26.26,26.26,0,0,1-15.24-14.92,30.58,30.58,0,0,1-2.19-11.77,31.88,31.88,0,0,1,2.19-12,26.9,26.9,0,0,1,6-9.24,26.58,26.58,0,0,1,9.2-5.88A32.15,32.15,0,0,1,475.24,9.5a27,27,0,0,1,10.4,2,24.33,24.33,0,0,1,8.93,6.74Z"/><path class="cls-1" d="M504,10.91h36.56v8.88H513.82V33.36h25.34v8.88H513.82v15H542V66.1H504Z"/><path class="cls-1" d="M580.24,22.76a9.05,9.05,0,0,0-4.17-3.32,14.59,14.59,0,0,0-5.5-1.05,13.89,13.89,0,0,0-3.31.39A9,9,0,0,0,564.38,20a6.48,6.48,0,0,0-2.07,2.22,6.41,6.41,0,0,0-.78,3.23,5.07,5.07,0,0,0,2,4.29,18.88,18.88,0,0,0,4.83,2.57c1.93.73,4,1.43,6.32,2.11a25.68,25.68,0,0,1,6.31,2.8A15.77,15.77,0,0,1,585.77,42a14.13,14.13,0,0,1,2,7.87,17.36,17.36,0,0,1-1.63,7.76,15.78,15.78,0,0,1-4.41,5.49,19,19,0,0,1-6.43,3.28,26.78,26.78,0,0,1-7.72,1.09,29,29,0,0,1-9.9-1.71A19.1,19.1,0,0,1,549.45,60l7.4-7.18a12.31,12.31,0,0,0,4.72,4.25,13.27,13.27,0,0,0,9.63,1.06,10.78,10.78,0,0,0,3.12-1.41,7.42,7.42,0,0,0,2.26-2.37,6.41,6.41,0,0,0,.85-3.32,5.79,5.79,0,0,0-1.95-4.68,17.18,17.18,0,0,0-4.83-2.76c-1.92-.76-4-1.47-6.31-2.15A26.43,26.43,0,0,1,558,38.7,15.39,15.39,0,0,1,553.19,34a13.94,13.94,0,0,1-2-7.84,14.87,14.87,0,0,1,1.76-7.4,15.89,15.89,0,0,1,4.59-5.18,20,20,0,0,1,6.51-3.08,27.84,27.84,0,0,1,7.49-1A27,27,0,0,1,580,10.83a19.61,19.61,0,0,1,7.37,4.36Z"/><path class="cls-1" d="M626.54,22.76a9.05,9.05,0,0,0-4.17-3.32,14.57,14.57,0,0,0-5.49-1.05,14,14,0,0,0-3.32.39A9.09,9.09,0,0,0,610.68,20a6.48,6.48,0,0,0-2.07,2.22,6.41,6.41,0,0,0-.78,3.23,5.07,5.07,0,0,0,1.95,4.29,18.78,18.78,0,0,0,4.84,2.57q2.88,1.09,6.31,2.11a25.51,25.51,0,0,1,6.31,2.8A15.69,15.69,0,0,1,632.08,42,14.13,14.13,0,0,1,634,49.88a17.36,17.36,0,0,1-1.64,7.76,15.75,15.75,0,0,1-4.4,5.49,19,19,0,0,1-6.44,3.28,26.76,26.76,0,0,1-7.71,1.09,29,29,0,0,1-9.9-1.71A19.19,19.19,0,0,1,595.75,60l7.41-7.18a12.21,12.21,0,0,0,4.71,4.25,13.19,13.19,0,0,0,6.2,1.52,13,13,0,0,0,3.43-.46,10.78,10.78,0,0,0,3.12-1.41,7.31,7.31,0,0,0,2.26-2.37,6.42,6.42,0,0,0,.86-3.32,5.79,5.79,0,0,0-2-4.68A17.11,17.11,0,0,0,617,43.61c-1.92-.76-4-1.47-6.31-2.15a26.18,26.18,0,0,1-6.31-2.76A15.32,15.32,0,0,1,599.49,34a13.94,13.94,0,0,1-2-7.84,14.87,14.87,0,0,1,1.76-7.4,15.92,15.92,0,0,1,4.6-5.18,19.77,19.77,0,0,1,6.51-3.08,27.72,27.72,0,0,1,7.48-1,27.12,27.12,0,0,1,8.46,1.33,19.58,19.58,0,0,1,7.36,4.36Z"/><path class="cls-1" d="M642.84,38.74a31.88,31.88,0,0,1,2.18-12,27,27,0,0,1,6-9.24,26.58,26.58,0,0,1,9.2-5.88A32.19,32.19,0,0,1,672,9.5a33,33,0,0,1,11.85,1.91,25.87,25.87,0,0,1,9.27,5.81,26.89,26.89,0,0,1,6.09,9.2,31.74,31.74,0,0,1,2.18,12A30.78,30.78,0,0,1,699.2,50.2a27.14,27.14,0,0,1-6.09,9.12,27.83,27.83,0,0,1-9.27,6A32.79,32.79,0,0,1,672,67.5a32.19,32.19,0,0,1-11.73-2.07A26.26,26.26,0,0,1,645,50.51,30.58,30.58,0,0,1,642.84,38.74Zm10.28-.63a23.78,23.78,0,0,0,1.37,8.19,19.18,19.18,0,0,0,3.86,6.47,17.77,17.77,0,0,0,6,4.28,18.71,18.71,0,0,0,7.76,1.56,19,19,0,0,0,7.79-1.56,17.64,17.64,0,0,0,6-4.28,19.18,19.18,0,0,0,3.86-6.47,23.78,23.78,0,0,0,1.37-8.19,21.58,21.58,0,0,0-1.37-7.72,19.07,19.07,0,0,0-3.86-6.27,17.59,17.59,0,0,0-6-4.21,19.44,19.44,0,0,0-7.79-1.52,19.19,19.19,0,0,0-7.76,1.52,17.72,17.72,0,0,0-6,4.21,19.07,19.07,0,0,0-3.86,6.27A21.58,21.58,0,0,0,653.12,38.11Z"/><path class="cls-1" d="M712.29,10.91h19.18a38.62,38.62,0,0,1,7.68.74,19.7,19.7,0,0,1,6.58,2.53,13.33,13.33,0,0,1,4.6,4.83,15.61,15.61,0,0,1,1.72,7.72,15.38,15.38,0,0,1-3.32,10.06,14.2,14.2,0,0,1-9.47,4.91l14.66,24.4H742.07L729.28,42.71h-7.17V66.1h-9.82Zm17.46,23.38c1.41,0,2.81-.06,4.21-.19a12.78,12.78,0,0,0,3.86-.94,6.6,6.6,0,0,0,2.85-2.26,7.24,7.24,0,0,0,1.09-4.25,6.71,6.71,0,0,0-1-3.89,6.32,6.32,0,0,0-2.65-2.23,12.13,12.13,0,0,0-3.62-1,32.18,32.18,0,0,0-3.86-.23h-8.5v15Z"/><path class="cls-1" d="M762.73,10.91h9.82V66.1h-9.82Z"/><path class="cls-1" d="M786.19,10.91h36.56v8.88H796V33.36h25.34v8.88H796v15h28.14V66.1h-38Z"/><path class="cls-1" d="M862.43,22.76a9.05,9.05,0,0,0-4.17-3.32,14.62,14.62,0,0,0-5.5-1.05,13.89,13.89,0,0,0-3.31.39A9,9,0,0,0,846.56,20a6.55,6.55,0,0,0-2.06,2.22,6.41,6.41,0,0,0-.78,3.23,5.07,5.07,0,0,0,1.95,4.29,18.88,18.88,0,0,0,4.83,2.57q2.88,1.09,6.32,2.11a25.68,25.68,0,0,1,6.31,2.8A15.77,15.77,0,0,1,868,42a14.13,14.13,0,0,1,1.95,7.87,17.22,17.22,0,0,1-1.64,7.76,15.75,15.75,0,0,1-4.4,5.49,19.08,19.08,0,0,1-6.43,3.28,26.83,26.83,0,0,1-7.72,1.09,29,29,0,0,1-9.9-1.71A19.1,19.1,0,0,1,831.64,60l7.4-7.18a12.31,12.31,0,0,0,4.72,4.25A13.15,13.15,0,0,0,850,58.61a13,13,0,0,0,3.43-.46,10.54,10.54,0,0,0,3.12-1.41,7.21,7.21,0,0,0,2.26-2.37,6.42,6.42,0,0,0,.86-3.32,5.79,5.79,0,0,0-2-4.68,17.18,17.18,0,0,0-4.83-2.76c-1.92-.76-4-1.47-6.31-2.15a26.26,26.26,0,0,1-6.32-2.76A15.39,15.39,0,0,1,835.38,34a13.94,13.94,0,0,1-2-7.84,14.86,14.86,0,0,1,1.75-7.4,15.92,15.92,0,0,1,4.6-5.18,20,20,0,0,1,6.51-3.08,27.77,27.77,0,0,1,7.48-1,27.12,27.12,0,0,1,8.46,1.33,19.61,19.61,0,0,1,7.37,4.36Z"/></svg>