<?xml version="1.0" encoding="utf-8"?>
<!-- Generator: Adobe Illustrator 26.5.0, SVG Export Plug-In . SVG Version: 6.00 Build 0)  -->
<svg version="1.1" id="Layer_1" xmlns="http://www.w3.org/2000/svg" xmlns:xlink="http://www.w3.org/1999/xlink" x="0px" y="0px"
	 viewBox="0 0 325.2 109.7" style="enable-background:new 0 0 325.2 109.7;" xml:space="preserve">
<style type="text/css">
	.st0{fill:#DB0632;}
	.st1{fill:#FFFFFF;}
	.st2{fill:#DB0032;}
</style>
<g>
	<path class="st0" d="M8,3.6C7.9,3.3,7.6,3.2,7.3,3C7.1,2.9,6.7,2.9,6.4,2.9c-0.2,0-0.4,0-0.6,0.1C5.7,3,5.5,3,5.4,3.1
		C5.2,3.2,5.1,3.4,5,3.5C5,3.7,4.9,3.8,4.9,4.1c0,0.3,0.1,0.6,0.3,0.7C5.5,4.9,5.7,5.1,6,5.2s0.7,0.2,1.1,0.4S7.8,5.8,8.2,6
		C8.5,6.2,8.7,6.5,9,6.8c0.2,0.3,0.3,0.8,0.3,1.3C9.3,8.6,9.2,9,9,9.4c-0.2,0.4-0.4,0.7-0.7,0.9c-0.3,0.2-0.7,0.4-1.1,0.5
		c-0.4,0.1-0.8,0.2-1.3,0.2c-0.6,0-1.1-0.1-1.7-0.3c-0.5-0.2-1-0.5-1.4-1l1.2-1.2c0.2,0.3,0.5,0.5,0.8,0.7c0.3,0.2,0.7,0.3,1,0.3
		c0.2,0,0.4,0,0.6-0.1C6.7,9.4,6.9,9.4,7,9.3C7.2,9.2,7.3,9,7.4,8.9c0.1-0.2,0.1-0.3,0.1-0.6c0-0.3-0.1-0.6-0.3-0.8
		C7,7.4,6.8,7.2,6.4,7.1S5.8,6.8,5.4,6.7C5,6.6,4.7,6.5,4.3,6.3C4,6.1,3.7,5.8,3.5,5.5C3.3,5.2,3.2,4.7,3.2,4.2
		c0-0.5,0.1-0.9,0.3-1.2c0.2-0.3,0.5-0.6,0.8-0.9c0.3-0.2,0.7-0.4,1.1-0.5c0.4-0.1,0.8-0.2,1.2-0.2c0.5,0,1,0.1,1.4,0.2
		C8.5,1.8,8.9,2,9.2,2.3L8,3.6z"/>
	<path class="st0" d="M12.9,3.1h-2.8V1.6h7.3v1.5h-2.8v7.7h-1.6V3.1z"/>
	<path class="st0" d="M18.5,1.6h3.2c0.4,0,0.9,0,1.3,0.1C23.3,1.8,23.7,2,24,2.2c0.3,0.2,0.6,0.5,0.8,0.8c0.2,0.3,0.3,0.8,0.3,1.3
		c0,0.7-0.2,1.2-0.6,1.7c-0.4,0.5-0.9,0.7-1.6,0.8l2.4,4.1h-2l-2.1-3.9h-1.2v3.9h-1.6V1.6z M21.4,5.5c0.2,0,0.5,0,0.7,0
		s0.4-0.1,0.6-0.2c0.2-0.1,0.4-0.2,0.5-0.4c0.1-0.2,0.2-0.4,0.2-0.7c0-0.3-0.1-0.5-0.2-0.6s-0.3-0.3-0.4-0.4
		c-0.2-0.1-0.4-0.1-0.6-0.2c-0.2,0-0.4,0-0.6,0h-1.4v2.5H21.4z"/>
	<path class="st0" d="M26.6,1.6h6.1v1.5h-4.5v2.3h4.2v1.5h-4.2v2.5H33v1.5h-6.3V1.6z"/>
	<path class="st0" d="M37.6,1.6H39l4,9.2h-1.9l-0.9-2.1h-4l-0.8,2.1h-1.8L37.6,1.6z M39.6,7.3l-1.4-3.7l-1.4,3.7H39.6z"/>
	<path class="st0" d="M44,1.6h2.5L49,8.1l2.5-6.4h2.5v9.2h-1.6V3.2h0l-2.8,7.6h-1.1l-2.8-7.6h0v7.6H44V1.6z"/>
	<path class="st0" d="M56,1.6h6.1v1.5h-4.5v2.3h4.2v1.5h-4.2v2.5h4.7v1.5H56V1.6z"/>
	<path class="st0" d="M63.9,1.6h3.2c0.4,0,0.9,0,1.3,0.1c0.4,0.1,0.8,0.2,1.1,0.4c0.3,0.2,0.6,0.5,0.8,0.8c0.2,0.3,0.3,0.8,0.3,1.3
		c0,0.7-0.2,1.2-0.6,1.7c-0.4,0.5-0.9,0.7-1.6,0.8l2.4,4.1h-2l-2.1-3.9h-1.2v3.9h-1.6V1.6z M66.9,5.5c0.2,0,0.5,0,0.7,0
		s0.4-0.1,0.6-0.2c0.2-0.1,0.4-0.2,0.5-0.4c0.1-0.2,0.2-0.4,0.2-0.7c0-0.3-0.1-0.5-0.2-0.6s-0.3-0.3-0.4-0.4
		c-0.2-0.1-0.4-0.1-0.6-0.2c-0.2,0-0.4,0-0.6,0h-1.4v2.5H66.9z"/>
	<path class="st0" d="M76.7,3.6C76.5,3.3,76.2,3.2,76,3c-0.3-0.1-0.6-0.2-0.9-0.2c-0.2,0-0.4,0-0.6,0.1C74.3,3,74.1,3,74,3.1
		c-0.1,0.1-0.3,0.2-0.3,0.4c-0.1,0.2-0.1,0.3-0.1,0.5c0,0.3,0.1,0.6,0.3,0.7c0.2,0.2,0.5,0.3,0.8,0.4s0.7,0.2,1.1,0.4
		s0.7,0.3,1.1,0.5c0.3,0.2,0.6,0.5,0.8,0.8c0.2,0.3,0.3,0.8,0.3,1.3c0,0.5-0.1,0.9-0.3,1.3c-0.2,0.4-0.4,0.7-0.7,0.9
		c-0.3,0.2-0.7,0.4-1.1,0.5c-0.4,0.1-0.8,0.2-1.3,0.2c-0.6,0-1.1-0.1-1.7-0.3c-0.5-0.2-1-0.5-1.4-1l1.2-1.2c0.2,0.3,0.5,0.5,0.8,0.7
		c0.3,0.2,0.7,0.3,1,0.3c0.2,0,0.4,0,0.6-0.1c0.2-0.1,0.4-0.1,0.5-0.2C75.8,9.2,75.9,9,76,8.9c0.1-0.2,0.1-0.3,0.1-0.6
		c0-0.3-0.1-0.6-0.3-0.8c-0.2-0.2-0.5-0.3-0.8-0.5S74.4,6.8,74,6.7c-0.4-0.1-0.7-0.3-1.1-0.5c-0.3-0.2-0.6-0.5-0.8-0.8
		c-0.2-0.3-0.3-0.8-0.3-1.3c0-0.5,0.1-0.9,0.3-1.2c0.2-0.3,0.5-0.6,0.8-0.9c0.3-0.2,0.7-0.4,1.1-0.5c0.4-0.1,0.8-0.2,1.2-0.2
		c0.5,0,1,0.1,1.4,0.2s0.9,0.4,1.2,0.7L76.7,3.6z"/>
	<path class="st0" d="M86.4,1.6h1.4l4,9.2h-1.9l-0.9-2.1h-4l-0.8,2.1h-1.8L86.4,1.6z M88.5,7.3l-1.4-3.7l-1.4,3.7H88.5z"/>
	<path class="st0" d="M92.8,1.6H95l4.5,6.8h0V1.6h1.6v9.2H99l-4.6-7.1h0v7.1h-1.6V1.6z"/>
	<path class="st0" d="M103.2,1.6h3.6c0.6,0,1.2,0.1,1.8,0.3c0.6,0.2,1.1,0.5,1.5,0.9c0.4,0.4,0.8,0.9,1,1.4c0.3,0.6,0.4,1.3,0.4,2
		c0,0.8-0.1,1.5-0.4,2c-0.3,0.6-0.7,1.1-1.2,1.4c-0.5,0.4-1,0.7-1.6,0.8c-0.6,0.2-1.1,0.3-1.7,0.3h-3.4V1.6z M106,9.3
		c0.5,0,1-0.1,1.4-0.2c0.5-0.1,0.9-0.3,1.2-0.5s0.6-0.6,0.8-1c0.2-0.4,0.3-0.9,0.3-1.4c0-0.6-0.1-1-0.3-1.4c-0.2-0.4-0.4-0.7-0.7-1
		c-0.3-0.2-0.7-0.4-1.1-0.5c-0.4-0.1-0.9-0.2-1.4-0.2h-1.5v6.2H106z"/>
	<path class="st0" d="M125.1,10.2c-1.1,0.6-2.4,0.9-3.8,0.9c-0.7,0-1.4-0.1-2-0.3s-1.1-0.6-1.5-1c-0.4-0.4-0.8-0.9-1-1.5
		s-0.4-1.2-0.4-2c0-0.7,0.1-1.4,0.4-2c0.2-0.6,0.6-1.1,1-1.5c0.4-0.4,0.9-0.8,1.5-1c0.6-0.2,1.2-0.3,2-0.3c0.7,0,1.4,0.1,2,0.3
		c0.6,0.2,1.2,0.5,1.7,0.9l-1.2,1.2c-0.3-0.3-0.7-0.5-1.1-0.7c-0.4-0.2-0.9-0.2-1.3-0.2c-0.5,0-0.9,0.1-1.3,0.3
		c-0.4,0.2-0.7,0.4-1,0.7s-0.5,0.6-0.6,1c-0.2,0.4-0.2,0.8-0.2,1.3c0,0.5,0.1,0.9,0.2,1.4c0.2,0.4,0.4,0.8,0.6,1.1
		c0.3,0.3,0.6,0.5,1,0.7c0.4,0.2,0.8,0.3,1.3,0.3c0.4,0,0.8,0,1.2-0.1c0.4-0.1,0.7-0.2,1-0.4V6.9h-1.9V5.4h3.5V10.2z"/>
	<path class="st0" d="M130,1.6h1.4l4,9.2h-1.9l-0.9-2.1h-4l-0.8,2.1H126L130,1.6z M132.1,7.3l-1.4-3.7l-1.4,3.7H132.1z"/>
	<path class="st0" d="M136.4,1.6h2.5l2.5,6.4l2.5-6.4h2.5v9.2h-1.6V3.2h0l-2.8,7.6h-1.1L138,3.2h0v7.6h-1.6V1.6z"/>
	<path class="st0" d="M148.4,1.6h6.1v1.5h-4.5v2.3h4.2v1.5h-4.2v2.5h4.7v1.5h-6.3V1.6z"/>
	<path class="st0" d="M156.4,1.6h3.2c0.4,0,0.9,0,1.3,0.1c0.4,0.1,0.8,0.2,1.1,0.4c0.3,0.2,0.6,0.5,0.8,0.8c0.2,0.3,0.3,0.8,0.3,1.3
		c0,0.7-0.2,1.2-0.6,1.7c-0.4,0.5-0.9,0.7-1.6,0.8l2.4,4.1h-2l-2.1-3.9H158v3.9h-1.6V1.6z M159.3,5.5c0.2,0,0.5,0,0.7,0
		s0.4-0.1,0.6-0.2c0.2-0.1,0.4-0.2,0.5-0.4c0.1-0.2,0.2-0.4,0.2-0.7c0-0.3-0.1-0.5-0.2-0.6s-0.3-0.3-0.4-0.4
		c-0.2-0.1-0.4-0.1-0.6-0.2c-0.2,0-0.4,0-0.6,0H158v2.5H159.3z"/>
	<path class="st0" d="M169.1,3.6c-0.2-0.3-0.4-0.4-0.7-0.6c-0.3-0.1-0.6-0.2-0.9-0.2c-0.2,0-0.4,0-0.6,0.1c-0.2,0-0.3,0.1-0.5,0.2
		c-0.1,0.1-0.3,0.2-0.3,0.4C166,3.7,166,3.8,166,4.1c0,0.3,0.1,0.6,0.3,0.7c0.2,0.2,0.5,0.3,0.8,0.4s0.7,0.2,1.1,0.4
		s0.7,0.3,1.1,0.5c0.3,0.2,0.6,0.5,0.8,0.8c0.2,0.3,0.3,0.8,0.3,1.3c0,0.5-0.1,0.9-0.3,1.3c-0.2,0.4-0.4,0.7-0.7,0.9
		c-0.3,0.2-0.7,0.4-1.1,0.5c-0.4,0.1-0.8,0.2-1.3,0.2c-0.6,0-1.1-0.1-1.7-0.3c-0.5-0.2-1-0.5-1.4-1l1.2-1.2c0.2,0.3,0.5,0.5,0.8,0.7
		c0.3,0.2,0.7,0.3,1,0.3c0.2,0,0.4,0,0.6-0.1c0.2-0.1,0.4-0.1,0.5-0.2c0.2-0.1,0.3-0.2,0.4-0.4c0.1-0.2,0.1-0.3,0.1-0.6
		c0-0.3-0.1-0.6-0.3-0.8c-0.2-0.2-0.5-0.3-0.8-0.5s-0.7-0.2-1.1-0.4c-0.4-0.1-0.7-0.3-1.1-0.5c-0.3-0.2-0.6-0.5-0.8-0.8
		c-0.2-0.3-0.3-0.8-0.3-1.3c0-0.5,0.1-0.9,0.3-1.2c0.2-0.3,0.5-0.6,0.8-0.9c0.3-0.2,0.7-0.4,1.1-0.5c0.4-0.1,0.8-0.2,1.2-0.2
		c0.5,0,1,0.1,1.4,0.2s0.9,0.4,1.2,0.7L169.1,3.6z"/>
</g>
<g>
	<path class="st1" d="M191.8,70.8h-5.6V39.5h5.6V70.8z"/>
	<path class="st1" d="M202.8,39.2c4.4,0,6,2,6,6.1v4.2h-5.4v-3.9c0-1-0.2-1.6-1.2-1.6c-1,0-1.2,0.6-1.2,1.7v0.7c0,1.5,0.3,2.5,1.7,4
		l3.2,3.6c2.8,3.2,3.4,5.4,3.4,8v1.5c0,4.7-2.2,7.7-6.8,7.7h-1.1c-4.2,0-6.4-2.3-6.4-6.5v-5.6h5.5v5c0,1.3,0.4,1.9,1.4,1.9
		c1,0,1.4-0.8,1.4-2.3v-0.6c0-2.2-0.2-3.1-1.8-4.9l-3.2-3.6c-2.3-2.5-3-5-3-7.9v-1.3c0-4,2.4-6.2,6.3-6.2H202.8z"/>
	<path class="st1" d="M227.5,57h5.5v7.1c0,3.7-1.5,7.2-6.5,7.2h-1.1c-5.4,0-6.6-3.5-6.6-7.4V46.3c0-3.8,1.6-7.1,6.6-7.1h1.1
		c5.3,0,6.5,3.3,6.5,6.9v5.3h-5.5v-5c0-1.2-0.4-1.8-1.4-1.8s-1.4,0.6-1.4,1.8v17.6c0,1.2,0.4,1.9,1.4,1.9s1.4-0.8,1.4-1.9V57z"/>
	<path class="st1" d="M251.1,63.7c0,4.6-2.4,7.6-6.6,7.6h-1.3c-4.4,0-6.8-2.7-6.8-7.6V47.1c0-4.8,1.9-8,6.7-8h1.3
		c4.9,0,6.7,3.2,6.7,7.9V63.7z M245.2,46.7c0-1.4-0.5-2.1-1.5-2.1c-1.1,0-1.5,0.7-1.5,2.1v17.1c0,1,0.4,1.8,1.6,1.8
		c1.1,0,1.4-0.9,1.4-1.8V46.7z"/>
	<path class="st1" d="M254.6,39.5h6.9l2.1,15.8l2.1-15.8h6.4v31.3h-5V52.3l-2.8,18.5h-2.1l-2.8-18.5v18.5h-4.9V39.5z"/>
	<path class="st1" d="M281.5,70.8h-5.6V39.5h5.6V70.8z"/>
	<path class="st1" d="M290.5,39.5l3.8,16v-16h5v31.3h-4.7l-4.3-17.1v17.1h-5V39.5H290.5z"/>
	<path class="st1" d="M307.9,71.2c-3.3,0-5.1-2.8-5.1-6.1V46.5c0-3.9,1.6-7.3,6.5-7.3h1.1c5.5,0,6.5,3.5,6.5,7.3v3.4h-5.5v-3.5
		c0-1.3-0.3-2-1.4-2c-1,0-1.4,0.7-1.4,2v17.4c0,1.3,0.5,2,1.5,2c1.1,0,1.6-0.7,1.6-1.9v-6.7h-2.1v-5.3h7.4v18.9h-3.4
		c-0.2-0.7-0.5-2-0.8-3c-0.5,1.1-1.8,3.4-4.6,3.4H307.9z"/>
</g>
<g>
	<g>
		<polygon class="st2" points="152.9,55.2 130.2,84.8 110,84.8 132.7,55.2 110,25.7 130.2,25.7 		"/>
		<polygon class="st2" points="156.1,51 175.6,25.7 155.4,25.7 146.1,37.8 		"/>
		<polygon class="st2" points="146.1,72.6 155.4,84.8 175.6,84.8 156.1,59.5 		"/>
	</g>
	<path class="st1" d="M28,49.4c0-5.6-5.5-9-10.6-9H2.5V70h8.9V55.7l6.8,14.1l0.1,0.3h10.1l-7-12.5C25.5,56.4,28,53.3,28,49.4
		L28,49.4z M11.4,44.7H14c2.8,0,4.8,2,4.8,4.9c0,4.2-2.4,5-6.5,5h-1C11.4,54.6,11.4,44.7,11.4,44.7z M114.9,65.3V70H95.3V40.4h19.7
		v4.7h-10.8v7.3h9.7v4.7h-9.7v8.1H114.9L114.9,65.3z M77,40.4H63.9V70h14.4c8.8,0,14.6-5.6,14.6-14.3S86.2,40.4,77,40.4z M83.7,54.6
		c0,5.5-2.2,11.3-8.3,11.3h-3V44.5h2.7C81,44.5,83.7,49.6,83.7,54.6L83.7,54.6z M60.8,42.4L58.3,40l-3,3c-2.7-2.1-6.1-3.4-9.8-3.4
		c-8.8,0-15.7,6.8-15.7,15.6c0,3.8,1.3,7.2,3.5,9.9l-3,3l2.5,2.5l3-3c2.7,2,6,3.3,9.7,3.3c8.8,0,15.7-6.8,15.7-15.6
		c0-3.7-1.3-7.1-3.4-9.8L60.8,42.4L60.8,42.4z M45.4,43.5c2.8,0,4.3,1.8,5.3,4L39.1,59.1c-0.2-1.5-0.3-2.9-0.3-3.9
		C38.9,51.7,39.5,43.5,45.4,43.5L45.4,43.5z M51.7,51.5c0.2,1.4,0.3,2.7,0.3,3.7c0,3.5-0.6,11.7-6.5,11.7c-2.7,0-4.3-1.7-5.2-3.9
		L51.7,51.5L51.7,51.5z"/>
</g>
<rect x="185.3" y="80.8" class="st2" width="132.8" height="25.9"/>
<g>
	<path d="M209.1,98.4c0,2.4-1.3,4-3.5,4H205c-2.3,0-3.5-1.4-3.5-4v-8.6c0-2.5,1-4.2,3.5-4.2h0.7c2.6,0,3.5,1.7,3.5,4.2V98.4z
		 M206.1,89.5c0-0.7-0.2-1.1-0.8-1.1c-0.6,0-0.8,0.4-0.8,1.1v9c0,0.5,0.2,1,0.8,1c0.6,0,0.7-0.5,0.7-1V89.5z"/>
	<path d="M215.5,94.9h2.9v3.7c0,2-0.8,3.8-3.4,3.8h-0.6c-2.8,0-3.5-1.8-3.5-3.9v-9.2c0-2,0.9-3.7,3.5-3.7h0.6c2.8,0,3.4,1.7,3.4,3.6
		V92h-2.9v-2.6c0-0.6-0.2-0.9-0.7-0.9c-0.6,0-0.7,0.3-0.7,0.9v9.2c0,0.6,0.2,1,0.7,1c0.5,0,0.7-0.4,0.7-1V94.9z"/>
	<path d="M227,85.8v2.9h-2.1v13.5H222V88.7h-2.1v-2.9H227z"/>
	<path d="M236.1,98.4c0,2.4-1.3,4-3.5,4H232c-2.3,0-3.5-1.4-3.5-4v-8.6c0-2.5,1-4.2,3.5-4.2h0.7c2.6,0,3.5,1.7,3.5,4.2V98.4z
		 M233.1,89.5c0-0.7-0.2-1.1-0.8-1.1c-0.6,0-0.8,0.4-0.8,1.1v9c0,0.5,0.2,1,0.8,1c0.6,0,0.7-0.5,0.7-1V89.5z"/>
	<path d="M238,85.8h4.4c2,0,2.8,0.8,2.8,2.9v2.2c0,1.3-0.8,2.1-1.4,2.3c0.8,0.2,1.6,0.8,1.6,2.6v2.7c0,2.6-0.9,3.7-2.7,3.7H238V85.8
		z M240.9,88.3v3.9h0.7c0.5,0,0.8-0.2,0.8-1v-2c0-0.6-0.2-0.9-0.7-0.9H240.9z M240.9,94.8v4.7h0.8c0.5,0,0.7-0.2,0.7-1.1v-2.7
		c0-0.7-0.2-1-0.9-1H240.9z"/>
	<path d="M253.4,85.8v2.9h-3.2v3.6h2.5v2.9h-2.5v4h3.3v2.9h-6.3V85.8H253.4z"/>
	<path d="M258.1,102.2h-2.9V85.8h4.6c1.8,0,2.7,1,2.7,2.7v2.6c0,1.3-0.7,2-1.3,2.2c0.5,0.2,1.3,0.7,1.3,1.9v5.6c0,0.7,0.1,1,0.2,1.2
		v0.1h-2.9c-0.1-0.2-0.3-0.5-0.3-1.3v-4.8c0-0.7-0.2-1-0.8-1h-0.6V102.2z M258.1,92.5h0.6c0.6,0,0.8-0.2,0.8-1v-2.2
		c0-0.7-0.1-0.9-0.7-0.9h-0.7V92.5z"/>
	<path d="M270.6,89v2.5h-2.8v-2.9c0-1.5,0.7-3.1,3-3.1h0.6c2.1,0,3.3,1,3.3,3.1v0.9c0,1.8,0,2.6-1.4,4.4c-0.5,0.7-1.1,1.4-1.6,2.1
		c-1.8,2.4-1.7,2.8-1.7,3.1h2v-2.8h2.9v5.6h-7.4v-1.7c0-2,0.2-2.9,2-5.8l1.4-2.3c0.8-1.3,0.8-1.8,0.8-2.4v-1c0-0.5-0.2-0.7-0.6-0.7
		C270.7,88.3,270.6,88.5,270.6,89z"/>
	<path d="M282.1,91.6c1.4,0,2,1.2,2,2.1v5.4c0,1.6-1.1,3.3-3.3,3.3h-0.7c-2.4,0-3.4-1.5-3.4-3.2V89c0-2,1-3.5,3.4-3.5h0.6
		c2.1,0,3.1,1.3,3.1,2.7v2.5h-3v-1.8c0-0.4-0.1-0.6-0.5-0.6c-0.4,0-0.5,0.3-0.5,0.6v4.2c0.4-0.5,1.1-1.5,2.2-1.5H282.1z M281,98.8
		V95c0-0.6-0.2-0.8-0.7-0.8c-0.4,0-0.7,0.2-0.7,0.8v3.8c0,0.4,0.1,0.9,0.7,0.9C280.9,99.6,281,99.1,281,98.8z"/>
	<path d="M292.7,85.8v2.9h-2.1v13.5h-2.9V88.7h-2.1v-2.9H292.7z"/>
	<path d="M297.3,102.2h-2.9V85.8h2.9V92h1.5v-6.2h2.9v16.4h-2.9v-6.9h-1.5V102.2z"/>
</g>
</svg>
